<?xml version="1.0" standalone="no"?>
<!DOCTYPE svg PUBLIC "-//W3C//DTD SVG 20010904//EN"
 "http://www.w3.org/TR/2001/REC-SVG-20010904/DTD/svg10.dtd">
<svg version="1.0" xmlns="http://www.w3.org/2000/svg"
 width="280.000000pt" height="280.000000pt" viewBox="0 0 280.000000 280.000000"
 preserveAspectRatio="xMidYMid meet">
<metadata>
Created by potrace 1.11, written by Peter Selinger 2001-2013
</metadata>
<g transform="translate(0.000000,280.000000) scale(0.100000,-0.100000)"
fill="#000000" stroke="none">
<path d="M953 2473 c-7 -2 -13 -9 -13 -15 0 -6 7 -8 15 -4 9 3 15 0 15 -10 0
-9 -5 -12 -12 -8 -8 5 -9 2 -5 -10 4 -10 7 -22 7 -27 0 -5 9 -9 20 -9 11 0 20
4 20 10 0 5 7 7 16 3 14 -5 14 -2 0 32 -9 21 -16 39 -16 41 0 5 -32 4 -47 -3z
m47 -30 c0 -5 -7 -17 -15 -27 -15 -20 -20 -10 -9 18 6 16 24 22 24 9z"/>
<path d="M1128 2363 c-1 -53 -3 -63 -5 -31 -2 27 -10 48 -18 51 -17 7 -55 -3
-55 -14 0 -12 14 -11 27 2 8 8 13 8 17 0 4 -6 3 -11 -3 -11 -7 0 -8 -17 -4
-45 3 -25 2 -45 -3 -45 -14 0 -44 54 -44 78 0 14 -7 20 -23 20 -19 0 -23 -6
-23 -32 -1 -32 -34 -119 -39 -101 -17 64 -30 95 -41 95 -10 0 -8 -13 8 -52 11
-29 23 -65 26 -80 l4 -28 19 23 c16 19 18 20 19 5 0 -10 4 -18 9 -18 5 0 10
25 10 56 0 80 13 85 48 17 36 -68 113 -281 113 -313 0 -27 -42 -99 -48 -82 -6
19 -22 14 -22 -6 0 -10 -13 -31 -29 -46 l-28 -27 -27 31 c-31 37 -33 60 -7 60
11 0 23 5 26 10 4 6 -5 10 -21 10 -24 0 -26 2 -20 31 3 17 6 40 6 50 0 11 7
19 15 19 8 0 15 5 15 10 0 6 -7 10 -15 10 -13 0 -15 9 -9 50 4 31 3 50 -3 50
-6 0 -13 -25 -15 -55 -4 -52 -12 -74 -22 -64 -3 2 -6 33 -7 67 -1 35 -6 65
-10 68 -4 2 -28 45 -53 94 -32 62 -46 102 -46 130 0 22 -4 40 -10 40 -6 0 -10
-27 -10 -62 0 -61 0 -61 -20 -43 -35 31 -33 9 4 -48 51 -80 66 -86 47 -19 -5
17 -8 32 -5 32 2 0 20 -32 40 -72 31 -61 35 -78 30 -116 -5 -39 -4 -43 9 -32
12 10 15 9 15 -8 0 -30 -10 -52 -25 -52 -7 0 -16 -7 -19 -15 -5 -14 -9 -14
-33 2 -26 18 -27 18 -18 -2 10 -22 12 -91 3 -100 -3 -3 -39 17 -80 44 -93 62
-112 97 -110 214 0 59 -3 80 -14 84 -8 3 -14 14 -14 24 0 11 -7 19 -16 19 -13
0 -15 -7 -9 -40 l7 -40 -36 0 c-20 0 -36 -5 -36 -11 0 -5 5 -7 12 -3 7 4 8 3
4 -4 -9 -14 3 -62 16 -62 5 0 6 17 3 38 -6 33 -5 35 8 20 19 -24 40 -23 32 1
-3 11 -1 22 5 26 5 3 10 -2 10 -14 0 -10 3 -27 7 -37 5 -13 3 -15 -7 -9 -10 6
-12 4 -6 -11 13 -34 24 -104 15 -104 -4 0 -11 20 -15 45 -3 25 -10 45 -13 45
-16 0 -19 -13 -10 -42 9 -33 12 -32 -53 -11 -31 9 -20 -14 12 -27 29 -12 75
-59 66 -67 -2 -2 -40 7 -85 20 -44 14 -83 21 -86 17 -3 -5 13 -14 35 -20 22
-5 58 -15 80 -20 22 -6 40 -16 40 -21 0 -6 7 -9 15 -5 10 4 22 -5 35 -27 11
-17 20 -34 20 -37 0 -3 -16 -16 -35 -29 -31 -21 -38 -22 -67 -11 -66 24 -341
100 -361 100 -41 0 -1 -18 93 -40 l94 -23 -39 -13 c-39 -13 -39 -14 30 -9 54
4 85 0 135 -16 36 -12 67 -23 69 -25 3 -2 -6 -15 -19 -29 -13 -14 -20 -28 -16
-32 4 -5 18 4 30 20 24 30 33 32 88 15 51 -15 192 -149 303 -286 72 -88 85
-111 85 -141 l0 -37 -107 4 c-64 2 -113 9 -119 15 -21 22 -106 216 -99 227 4
6 16 10 28 8 14 -2 22 2 22 12 0 10 -9 14 -29 13 -34 -3 -48 -20 -40 -47 7
-20 2 -18 -46 14 -33 23 -100 51 -100 42 0 -4 34 -27 75 -51 41 -24 80 -50 86
-58 7 -8 29 -52 50 -98 l37 -84 -70 -11 c-119 -20 -218 4 -351 84 -80 49 -87
52 -87 37 0 -6 27 -24 61 -42 34 -18 63 -39 66 -45 3 -7 30 -18 61 -25 66 -14
89 -29 46 -30 -28 0 -28 0 -5 -10 13 -5 39 -7 57 -3 50 9 43 -13 -8 -26 -120
-30 -348 -129 -348 -150 0 -6 25 3 56 19 63 36 73 38 52 14 -23 -26 -70 -124
-64 -131 8 -7 9 -5 44 63 16 33 42 72 56 86 25 25 138 72 206 86 l31 6 -6 -37
c-9 -43 11 -51 21 -8 10 49 13 52 44 52 l30 0 -15 -36 c-18 -43 -19 -54 -4
-54 5 0 19 20 30 45 23 52 15 51 156 5 45 -15 85 -25 88 -22 13 13 1 30 -50
67 -30 22 -55 43 -55 46 0 10 107 18 148 12 20 -3 41 -12 45 -20 5 -7 13 -11
19 -7 14 9 115 -92 139 -139 17 -33 18 -43 8 -71 l-12 -34 -70 50 c-121 87
-120 67 2 -24 85 -64 84 -60 87 -300 3 -252 -8 -366 -36 -387 -11 -7 -20 -20
-20 -27 0 -8 -7 -14 -15 -14 -8 0 -15 5 -15 10 0 19 -31 23 -43 6 -10 -13 -19
-14 -44 -7 -20 6 -33 6 -33 0 0 -5 -13 -9 -28 -9 -20 0 -33 7 -42 24 -10 20
-22 25 -64 28 -42 3 -60 -1 -102 -24 -56 -31 -105 -35 -148 -13 -15 8 -39 15
-52 15 -13 0 -46 9 -73 20 l-50 19 -20 -28 c-14 -20 -29 -28 -48 -28 -15 1
-52 -2 -80 -7 -45 -7 -53 -6 -53 8 0 9 -8 17 -17 17 -79 7 -102 5 -136 -13
l-38 -19 -44 30 -45 30 0 -179 0 -180 1400 0 1400 0 0 179 0 179 -31 6 c-55
11 -74 7 -84 -16 -8 -19 -18 -23 -57 -24 -26 0 -54 -7 -63 -14 -19 -16 -122
-9 -152 11 -17 10 -29 10 -61 1 -54 -16 -56 -16 -91 20 l-32 32 -60 -33 c-72
-39 -179 -56 -179 -27 0 21 -45 21 -123 1 -74 -19 -77 -19 -77 6 0 19 -4 21
-37 14 -21 -4 -41 -12 -44 -17 -4 -6 -19 -8 -33 -6 -15 3 -29 1 -32 -4 -4 -7
-9 -7 -13 0 -12 18 -48 23 -60 8 -17 -20 -41 -9 -41 18 0 13 -2 25 -5 28 -9 9
-55 -16 -55 -29 0 -17 -10 -16 -34 2 -16 12 -21 12 -40 0 -14 -9 -26 -11 -36
-5 -13 8 -15 59 -18 333 l-2 323 72 59 c70 58 167 115 194 115 9 0 14 -11 14
-28 0 -16 7 -37 15 -48 14 -18 14 -18 15 8 0 15 -4 38 -9 51 -11 28 0 37 44
37 13 0 27 5 30 10 4 7 25 9 53 5 35 -5 43 -4 32 5 -17 12 45 6 146 -14 l59
-12 3 -52 c3 -54 22 -64 22 -12 0 51 8 60 38 47 35 -16 110 -94 126 -132 16
-36 46 -65 46 -44 0 23 -58 116 -82 133 -36 26 -12 19 66 -19 77 -37 86 -40
86 -27 0 4 -46 28 -102 52 -70 31 -109 55 -127 77 -24 30 -51 44 -51 26 -1
-29 -18 -34 -86 -23 -123 20 -125 21 -74 36 l45 13 -45 -6 c-25 -3 -65 -11
-88 -19 -55 -16 -74 -9 -70 25 3 25 6 26 93 34 49 4 91 10 94 13 10 10 -8 11
-74 3 -194 -23 -219 -23 -212 -5 4 10 7 23 7 31 0 19 214 88 253 81 24 -5 27
-4 12 3 -16 7 -17 10 -5 14 36 13 60 14 66 5 4 -7 9 -6 14 2 4 7 27 16 51 21
24 4 54 10 66 13 13 3 37 16 55 29 18 14 76 47 128 73 l95 48 102 1 c57 0 103
3 103 8 0 4 -37 7 -82 8 l-83 0 43 22 c44 22 58 43 19 28 -13 -5 -60 -29 -105
-53 l-81 -43 -31 38 c-17 20 -51 49 -76 63 -24 14 -44 28 -44 32 0 3 12 20 26
39 39 51 18 54 -24 4 -30 -37 -63 -57 -189 -117 -83 -40 -170 -84 -192 -98
-22 -15 -43 -26 -46 -26 -17 0 1 39 36 82 23 27 38 52 34 56 -3 4 -20 -9 -37
-28 -27 -32 -29 -33 -24 -10 3 14 8 49 12 78 4 29 14 61 23 69 16 17 254 133
272 133 5 0 9 -7 9 -15 0 -8 5 -15 10 -15 17 0 11 25 -15 60 -14 19 -23 40
-21 47 6 16 -34 17 -118 3 -33 -5 -61 -8 -63 -6 -2 2 24 13 58 26 45 16 73 20
101 16 26 -4 37 -3 33 4 -3 5 -15 10 -26 10 -10 0 -19 5 -19 10 0 6 3 10 8 10
12 0 117 98 111 104 -3 3 -40 -21 -82 -53 -56 -43 -92 -62 -128 -70 -54 -12
-99 -14 -99 -6 0 6 32 66 75 144 14 24 23 47 20 49 -9 9 -23 -10 -59 -78 -33
-61 -35 -63 -41 -37 -9 35 -9 60 0 126 6 40 5 52 -3 47 -7 -4 -12 -14 -12 -22
0 -9 -5 -12 -11 -8 -6 3 -9 19 -7 35 6 40 -18 45 -27 6 l-7 -32 -13 48 c-7 27
-16 51 -19 55 -13 12 -15 -6 -5 -44 12 -43 4 -160 -13 -204 -4 -8 -12 -33 -18
-55 -7 -22 -23 -60 -37 -85 -27 -51 -139 -168 -149 -157 -4 4 -6 34 -5 67 2
67 -11 78 -30 26 -12 -34 -13 -34 -29 -15 -22 24 -26 24 -33 -1 -9 -35 -25
-21 -29 25 -2 25 0 46 3 47 6 3 69 135 69 144 0 2 -5 4 -11 4 -5 0 -21 -25
-34 -55 -14 -30 -27 -55 -29 -55 -2 0 -4 41 -5 91 l-1 90 47 80 c26 43 52 79
56 79 5 0 8 -28 7 -62 -1 -35 -1 -67 -1 -72 1 -6 22 18 47 53 49 65 52 100 4
43 -27 -33 -27 -33 -34 -10 -3 13 -6 49 -6 80 0 31 -4 60 -10 63 -6 4 -10 -8
-10 -29 0 -22 -11 -51 -29 -78 -16 -24 -38 -59 -51 -78 l-22 -35 6 62 c4 48 2
65 -10 77 -22 22 -34 20 -35 -6 -1 -17 -2 -19 -6 -5 -6 25 -23 21 -23 -5 1
-13 7 -50 15 -83 8 -34 15 -108 15 -170 -1 -128 -3 -128 -73 14 -41 82 -41 84
-45 212 -5 141 -21 176 -24 52z m583 -175 c-6 -17 -11 -63 -11 -102 l-1 -71
-20 38 c-18 35 -19 41 -5 85 22 74 38 108 43 94 3 -7 0 -27 -6 -44z m-573 -49
c-3 -8 -7 -3 -11 10 -4 17 -3 21 5 13 5 -5 8 -16 6 -23z m612 -105 c-14 -37
-23 -24 -14 21 5 29 9 34 15 22 6 -9 5 -27 -1 -43z m-480 -141 c0 -43 -16 -50
-34 -15 -16 32 -46 140 -46 168 0 33 79 -119 80 -153z m389 96 c-25 -16 -31
-10 -24 24 11 50 18 55 29 19 7 -26 6 -36 -5 -43z m176 11 c-60 -22 -84 -25
-68 -9 12 12 65 27 98 27 11 0 -2 -8 -30 -18z m-95 -25 c0 -8 -4 -15 -10 -15
-5 0 -10 7 -10 15 0 8 5 15 10 15 6 0 10 -7 10 -15z m-74 -23 c-19 -36 -31
-46 -89 -71 l-48 -21 47 55 c26 30 56 56 68 58 12 2 24 5 29 6 4 0 1 -12 -7
-27z m-689 -19 c-3 -10 -5 -4 -5 12 0 17 2 24 5 18 2 -7 2 -21 0 -30z m1005
15 c25 -25 23 -31 -14 -47 -18 -8 -77 -36 -131 -62 -54 -27 -100 -49 -102 -49
-3 0 -2 14 2 30 3 17 1 30 -4 30 -17 0 -63 -48 -63 -65 0 -16 -156 -185 -171
-185 -13 0 -11 19 6 78 17 55 65 111 120 140 18 9 25 17 17 20 -7 2 -20 -2
-30 -9 -9 -7 -4 1 12 19 16 17 38 35 49 38 16 5 17 8 6 15 -11 6 -11 11 -2 20
10 10 14 9 19 -4 3 -9 12 -17 19 -17 7 0 16 -10 20 -22 l8 -23 4 22 c5 25 19
38 50 47 18 6 22 4 17 -8 -4 -11 0 -16 15 -16 12 0 24 0 28 -1 4 0 11 9 15 21
7 20 5 22 -17 18 -14 -3 -22 -1 -18 5 3 5 -3 7 -16 3 -11 -3 -30 -9 -41 -12
-11 -3 -20 -1 -20 5 0 5 17 13 38 16 20 4 42 8 47 10 6 2 34 3 64 3 38 -1 60
-7 73 -20z m-1023 -56 c1 -7 -3 -10 -9 -7 -5 3 -10 21 -9 38 1 31 1 31 9 7 4
-14 8 -31 9 -38z m781 38 c0 -5 -4 -10 -10 -10 -5 0 -10 5 -10 10 0 6 5 10 10
10 6 0 10 -4 10 -10z m-946 -67 c37 -27 46 -38 46 -63 0 -16 -2 -30 -5 -30
-21 0 -145 124 -145 145 0 19 10 14 104 -52z m122 8 c-9 -13 -36 -15 -36 -2 0
5 3 17 6 26 6 15 8 15 22 2 8 -8 11 -20 8 -26z m279 20 c3 -5 1 -12 -5 -16 -5
-3 -10 1 -10 9 0 18 6 21 15 7z m436 -8 c-5 -10 -36 -44 -68 -76 l-59 -57 -22
23 c-20 22 -21 25 -7 37 13 11 152 87 163 89 1 1 -2 -7 -7 -16z m-423 -45 c2
-9 -4 -18 -13 -21 -11 -5 -15 0 -15 19 0 28 23 29 28 2z m-278 -8 c0 -21 -15
-27 -25 -10 -7 12 2 30 16 30 5 0 9 -9 9 -20z m34 -2 c3 -13 6 -32 6 -43 -1
-20 -1 -20 -15 -1 -16 22 -20 66 -6 66 5 0 11 -10 15 -22z m197 9 c-1 -4 -1
-14 -1 -22 0 -8 -4 -15 -9 -15 -12 0 -23 29 -15 41 6 11 26 8 25 -4z m209 -7
c0 -17 -3 -18 -25 -8 -14 6 -25 15 -25 20 0 4 11 8 25 8 18 0 25 -5 25 -20z
m-100 -22 c0 -19 -2 -20 -10 -8 -13 19 -13 30 0 30 6 0 10 -10 10 -22z m-456
-63 c33 -41 90 -135 82 -135 -2 0 -19 15 -38 33 -18 17 -57 53 -86 78 -38 34
-52 54 -52 73 l0 27 31 -18 c17 -10 46 -36 63 -58z m-111 45 c5 -21 -7 -25
-37 -14 -13 5 -14 9 -5 20 16 20 36 17 42 -6z m532 -27 c18 -53 33 -228 17
-203 -15 23 -72 189 -72 209 0 17 18 41 31 41 4 0 15 -21 24 -47z m119 3 c-1
-21 -9 -45 -18 -54 -15 -15 -16 -12 -16 42 0 49 2 57 18 54 13 -3 17 -13 16
-42z m66 26 c0 -18 -18 -42 -31 -42 -4 0 -2 14 4 30 13 33 27 40 27 12z m-379
-53 c29 -58 22 -68 -16 -27 -22 23 -35 48 -35 64 0 23 2 25 16 13 8 -7 24 -30
35 -50z m61 -4 c1 -36 2 -65 0 -65 -2 0 -12 20 -23 45 -15 35 -17 49 -9 65 19
35 28 22 32 -45z m93 -77 c21 -57 45 -113 53 -126 13 -20 13 -22 -2 -16 -15 6
-16 1 -10 -37 7 -40 6 -43 -9 -31 -9 8 -36 55 -61 105 -43 87 -46 97 -46 172
1 79 1 80 19 58 10 -12 35 -68 56 -125z m-284 115 c16 -10 38 -36 48 -58 19
-41 34 -125 23 -125 -7 1 -88 109 -109 147 -12 19 -9 53 4 53 3 0 18 -8 34
-17z m563 -17 c9 -13 7 -20 -8 -32 -27 -19 -36 -18 -36 5 0 49 22 63 44 27z
m-54 -33 c0 -27 -79 -193 -92 -193 -13 0 -9 35 12 103 29 95 80 152 80 90z
m271 -78 c-19 -128 -30 -133 -70 -35 l-22 55 47 44 c31 27 50 38 53 30 2 -7
-2 -49 -8 -94z m-211 0 c-11 -51 -62 -141 -130 -225 l-20 -25 0 48 c0 40 10
67 52 147 31 58 63 103 78 112 32 18 34 11 20 -57z m670 30 c43 -27 100 -80
100 -92 0 -4 -46 -32 -103 -61 -76 -39 -115 -53 -151 -55 l-50 -2 -44 63 -44
62 114 54 c62 30 119 55 126 55 7 1 30 -10 52 -24z m-1088 -53 c32 -37 82
-103 113 -147 59 -86 63 -104 48 -223 l-6 -53 -21 34 c-12 19 -37 59 -58 89
-20 30 -41 73 -47 96 -7 23 -17 42 -24 42 -18 0 -64 118 -69 178 -3 28 -2 52
1 52 3 0 32 -31 63 -68z m265 36 c-3 -8 -6 -5 -6 6 -1 11 2 17 5 13 3 -3 4
-12 1 -19z m283 -65 c36 -95 32 -121 -26 -189 -28 -33 -63 -76 -78 -96 -27
-36 -31 -38 -86 -38 -65 0 -77 9 -90 65 -7 29 -5 37 11 45 10 6 38 36 61 68
52 72 167 202 178 202 5 0 18 -26 30 -57z m-629 -57 c16 -30 18 -37 6 -28 -21
18 -77 102 -77 116 1 15 43 -37 71 -88z m891 -18 c-7 -7 -12 -19 -12 -27 1
-13 4 -12 16 4 16 21 17 20 45 -28 11 -19 11 -20 -61 -37 -25 -6 -85 -25 -133
-41 -49 -17 -91 -28 -94 -25 -3 3 -2 21 1 40 8 43 44 88 88 110 18 10 51 28
73 41 l40 24 25 -24 c19 -19 22 -27 12 -37z m-260 -147 c-2 -18 -13 -33 -29
-40 -27 -12 -27 -11 2 36 25 41 33 42 27 4z m-352 -126 c0 -43 -4 -75 -10 -75
-6 0 -10 32 -10 75 0 43 4 75 10 75 6 0 10 -32 10 -75z m335 48 c-9 -38 -15
-42 -53 -36 -32 5 -33 6 -15 25 17 19 47 36 67 37 4 1 5 -11 1 -26z m-453 -38
c9 -17 6 -16 -16 4 -14 14 -26 32 -26 40 1 13 4 12 16 -4 9 -11 20 -29 26 -40z
m551 0 c8 -20 -7 -27 -40 -19 -54 11 -60 15 -38 24 32 14 72 11 78 -5z m-243
-1 c0 -12 -104 -123 -112 -118 -14 9 -8 68 10 91 16 20 38 28 85 32 9 0 17 -2
17 -5z m-690 -14 c0 -5 -9 -10 -19 -10 -11 0 -23 5 -26 10 -4 6 5 10 19 10 14
0 26 -4 26 -10z m147 -27 c29 -20 51 -38 49 -40 -2 -2 -30 4 -63 15 -32 11
-73 23 -91 26 -51 12 -41 36 16 36 25 0 52 -12 89 -37z m642 28 c12 -8 10 -16
-12 -48 -36 -51 -48 -64 -75 -87 -22 -19 -22 -19 -16 -1 5 11 3 16 -2 12 -6
-3 -11 3 -11 14 -1 10 3 19 8 19 6 0 8 -4 4 -9 -3 -5 -1 -12 4 -15 5 -3 11 3
14 15 5 17 1 20 -21 17 -19 -2 -26 -8 -24 -21 2 -9 -1 -17 -5 -16 -22 4 -33
-3 -33 -21 0 -11 7 -20 15 -20 8 0 15 5 15 10 0 6 -5 10 -12 10 -6 0 -9 3 -5
6 3 3 12 2 20 -3 18 -9 12 -20 -41 -67 l-32 -30 0 40 c0 36 8 48 76 122 75 81
99 94 133 73z m-854 -11 c3 -5 -1 -10 -10 -10 -9 0 -13 5 -10 10 3 6 8 10 10
10 2 0 7 -4 10 -10z m905 -9 c0 -5 3 -16 6 -25 4 -10 -5 -20 -31 -30 -21 -9
-39 -16 -41 -16 -3 0 8 18 22 40 25 38 44 51 44 31z m80 -8 c12 -4 11 -7 -5
-13 -35 -15 -55 -11 -55 9 0 19 14 20 60 4z m390 -28 c14 -16 10 -18 -14 -9
-9 3 -16 10 -16 15 0 14 16 11 30 -6z"/>
<path d="M1797 1493 c-22 -6 -13 -22 11 -18 9 1 11 0 5 -2 -14 -5 -18 -23 -5
-23 18 1 32 18 26 33 -3 9 -9 16 -13 16 -3 -1 -14 -3 -24 -6z"/>
<path d="M804 2153 c21 -144 21 -147 0 -139 -63 26 -78 7 -16 -21 20 -9 41
-19 45 -21 4 -2 7 16 7 40 -3 71 -23 188 -33 188 -6 0 -7 -20 -3 -47z"/>
<path d="M878 2125 c-3 -6 2 -26 10 -45 8 -19 17 -30 19 -24 5 16 -22 81 -29
69z"/>
<path d="M600 2100 c0 -5 5 -10 10 -10 6 0 10 5 10 10 0 6 -4 10 -10 10 -5 0
-10 -4 -10 -10z"/>
<path d="M451 2071 c-8 -14 -5 -21 13 -31 13 -7 29 -9 35 -6 7 5 9 0 5 -11 -4
-14 -1 -12 15 6 28 31 27 37 -10 50 -42 15 -47 14 -58 -8z m39 -22 c0 -6 -4
-7 -10 -4 -5 3 -10 11 -10 16 0 6 5 7 10 4 6 -3 10 -11 10 -16z"/>
<path d="M2070 2020 c0 -5 19 -10 43 -10 31 0 38 3 27 10 -20 13 -70 13 -70 0z"/>
<path d="M562 1881 l-2 -38 45 -1 c41 -1 45 1 45 23 0 18 -5 25 -20 25 -11 0
-20 -4 -20 -10 0 -5 7 -10 16 -10 8 0 13 -4 10 -9 -8 -13 -56 -1 -56 14 0 7 5
15 12 17 14 5 2 28 -15 28 -7 0 -13 -17 -15 -39z"/>
<path d="M533 1691 c-10 -16 -8 -20 13 -29 19 -10 25 -8 33 6 7 14 5 21 -10
30 -24 15 -22 15 -36 -7z m32 -11 c3 -5 1 -10 -4 -10 -6 0 -11 5 -11 10 0 6 2
10 4 10 3 0 8 -4 11 -10z"/>
<path d="M2270 1440 c70 -15 77 -19 60 -31 -11 -8 -8 -9 13 -5 37 9 77 -14
126 -71 24 -28 41 -41 41 -32 0 9 -17 35 -39 58 l-38 41 36 -6 c27 -5 33 -3
25 5 -13 14 -127 39 -209 45 -58 5 -58 5 -15 -4z"/>
<path d="M2260 1355 c0 -9 108 -55 128 -54 9 0 -5 11 -33 23 -62 29 -95 39
-95 31z"/>
<path d="M2294 1284 c15 -14 31 -22 35 -19 7 7 -39 45 -54 44 -5 0 3 -11 19
-25z"/>
<path d="M348 1278 c-32 -6 -58 -15 -58 -20 0 -5 8 -7 18 -4 9 3 35 8 57 12
42 7 84 24 55 22 -8 0 -41 -5 -72 -10z"/>
<path d="M2070 1241 c0 -11 94 -35 112 -29 7 3 -9 12 -36 21 -56 19 -76 21
-76 8z"/>
<path d="M270 890 l0 -50 40 0 40 0 0 50 0 50 -40 0 -40 0 0 -50z m24 18 c-3
-13 -3 -20 1 -16 5 4 15 2 23 -5 13 -9 14 -9 8 1 -4 7 -2 12 4 12 15 0 8 -42
-7 -48 -7 -2 -13 5 -14 15 0 17 -1 17 -8 -1 -9 -24 -16 -12 -20 32 -1 19 2 32
9 32 7 0 9 -8 4 -22z m41 4 c-3 -3 -11 0 -18 7 -9 10 -8 11 6 5 10 -3 15 -9
12 -12z"/>
</g>
</svg>
